<svg width="264" height="264" viewBox="0 0 264 264" fill="none" xmlns="http://www.w3.org/2000/svg">
<path fill-rule="evenodd" clip-rule="evenodd" d="M262.355 64.0121C262.65 64.0805 262.927 64.2099 263.169 64.3919C263.411 64.574 263.612 64.8046 263.759 65.0689C263.888 65.3188 263.969 65.5902 264 65.8695C264.001 66.1314 263.949 66.3908 263.849 66.6326C263.748 66.8745 263.6 67.0941 263.414 67.2785C263.173 67.5107 262.941 67.6308 262.708 67.863C262.475 68.0951 262.355 68.0951 262.122 68.2152L169.544 121.855C167.452 123.029 165.637 124.638 164.221 126.571C162.804 128.504 161.82 130.718 161.334 133.063C159.801 137.867 164.616 146.289 167.201 150.732L185.034 182.099C185.951 183.591 186.549 185.256 186.79 186.989C187.032 188.722 186.912 190.486 186.438 192.171C185.463 195.329 183.327 198.002 180.459 199.656L162.618 210.192C159.791 211.852 156.444 212.395 153.236 211.713C151.562 211.286 149.997 210.513 148.642 209.444C147.288 208.375 146.173 207.035 145.37 205.509L144.319 203.755C142.929 201.439 142.034 198.86 141.69 196.182C141.346 193.504 141.561 190.784 142.32 188.192L170.363 83.0902C172.241 76.069 175.981 70.9212 181.864 67.5267L202.635 55.3577C204.974 54.0099 207.504 53.0221 210.139 52.4276C214.004 51.7033 217.987 51.9036 221.76 53.012C240.059 57.5513 262.355 64.0121 262.355 64.0121Z" fill="#5522D0"/>
<path fill-rule="evenodd" clip-rule="evenodd" d="M1.63734 64.0117C1.34255 64.081 1.06544 64.2108 0.823639 64.3927C0.581838 64.5746 0.380633 64.8048 0.232823 65.0685C0.108108 65.3194 0.0293069 65.5905 9.15322e-05 65.8691C-0.00245433 66.1312 0.0481318 66.3911 0.148812 66.6333C0.249492 66.8754 0.398175 67.0947 0.58596 67.2781C0.818709 67.5103 1.05148 67.6304 1.28423 67.8625C1.51698 68.0947 1.63736 68.0947 1.87813 68.2148L94.4479 121.854C96.539 123.031 98.354 124.64 99.7714 126.573C101.189 128.506 102.176 130.718 102.666 133.063C104.191 137.866 99.3757 146.289 96.7995 150.732L78.9661 182.099C78.048 183.59 77.4487 185.255 77.2056 186.988C76.9626 188.721 77.081 190.485 77.5536 192.17C78.5327 195.329 80.671 198.002 83.5408 199.656L101.374 210.192C104.201 211.851 107.548 212.394 110.756 211.713C112.43 211.287 113.996 210.515 115.351 209.446C116.706 208.377 117.82 207.035 118.622 205.508L119.681 203.755C121.068 201.437 121.96 198.858 122.303 196.18C122.645 193.502 122.43 190.783 121.671 188.192L93.6293 83.0898C91.7512 76.0686 88.0112 70.9208 82.1283 67.5263L61.3655 55.3573C59.024 54.0081 56.4912 53.0202 53.8533 52.4271C49.9904 51.702 46.0101 51.9023 42.24 53.0115C23.9331 57.5509 1.63734 64.0117 1.63734 64.0117Z" fill="#5522D0"/>
</svg>
