<svg width="409" height="386" viewBox="0 0 409 386" fill="none" xmlns="http://www.w3.org/2000/svg">
<path fill-rule="evenodd" clip-rule="evenodd" d="M642.994 -64.3605C641.36 -69.7615 638.221 -74.5836 633.946 -78.2609C630.311 -80.6604 610.976 -86.535 590.484 -92.1614C548.797 -103.042 540.369 -106.683 534.337 -116.363C531.9 -119.963 524.67 -141.185 518.638 -163.484C509.59 -195.546 505.954 -205.227 500.501 -210.068L498.724 -211.846C495.591 -214.688 491.462 -216.175 487.239 -215.984L321.981 -215.984C170.44 -215.984 148.709 -215.363 143.875 -211.846C135.612 -205.806 133.009 -200.966 122.144 -159.885C116.731 -139.2 110.08 -119.963 107.683 -116.363C101.652 -107.262 93.1823 -103.662 51.5373 -92.1614C28.6078 -86.1213 11.6687 -79.4606 7.45467 -75.8614L6.83485 -75.241C3.18377 -71.7457 1.0228 -66.9727 0.803106 -61.9195L0.224644 80.1058C-0.395073 190.152 0.224462 232.474 2.6207 237.893C6.75214 248.194 14.1064 251.215 55.1317 262.095C69.7917 265.512 84.1375 270.162 98.016 275.996C108.262 282.036 111.278 289.275 123.383 332.797C128.795 352.779 134.249 370.9 135.447 373.299C142.098 386 142.676 386 319.585 386C434.274 386 488.024 384.8 494.056 382.98C504.922 379.381 507.938 373.299 519.382 329.777C523.058 314.983 527.695 300.445 533.263 286.255C538.097 276.575 551.4 271.155 593.665 260.275C619.61 253.614 629.856 250.015 636.508 244.554L638.945 242.734C640.799 241.047 642.291 238.999 643.328 236.716C644.365 234.433 644.926 231.961 644.977 229.454L645.556 90.9863C645.39 -5.73811 644.812 -57.6998 643.118 -64.3605H642.994Z" fill="white" fill-opacity="0.08"/>
</svg>
