<svg width="395" height="425" viewBox="0 0 395 425" fill="none" xmlns="http://www.w3.org/2000/svg">
<path fill-rule="evenodd" clip-rule="evenodd" d="M392.389 154.563C390.724 149.058 387.525 144.142 383.167 140.394C379.461 137.949 359.753 131.961 338.866 126.226C296.377 115.136 287.786 111.425 281.638 101.557C279.153 97.8888 271.784 76.2567 265.636 53.5281C256.413 20.8478 252.708 10.9805 247.149 6.04679L245.338 4.23359C242.144 1.33708 237.936 -0.178517 233.632 0.0167818L65.1882 0.0167818C-89.2744 0.0167818 -111.425 0.649303 -116.352 4.23359C-124.774 10.3901 -127.427 15.3238 -138.502 57.1967C-144.018 78.2808 -150.798 97.8888 -153.241 101.557C-159.389 110.834 -168.021 114.503 -210.469 126.226C-233.841 132.382 -251.106 139.171 -255.402 142.84L-256.033 143.472C-259.755 147.035 -261.957 151.9 -262.181 157.051L-262.771 301.814C-263.403 413.981 -262.771 457.119 -260.329 462.643C-256.118 473.143 -248.622 476.221 -206.806 487.311C-191.863 490.794 -177.241 495.533 -163.094 501.48C-152.651 507.636 -149.577 515.016 -137.239 559.376C-131.722 579.744 -126.164 598.213 -124.942 600.659C-118.162 613.605 -117.573 613.605 62.7455 613.605C179.645 613.605 234.432 612.382 240.58 610.526C251.655 606.858 254.729 600.659 266.394 556.298C270.141 541.219 274.867 526.4 280.543 511.937C285.47 502.07 299.03 496.546 342.109 485.456C368.555 478.667 378.998 474.998 385.778 469.432L388.262 467.577C390.152 465.857 391.672 463.77 392.729 461.443C393.787 459.116 394.358 456.597 394.41 454.041L395 312.904C394.832 214.315 394.242 161.352 392.516 154.563H392.389Z" fill="black" fill-opacity="0.16"/>
</svg>
