<svg height="512" viewBox="0 0 512 512" width="512" xmlns="http://www.w3.org/2000/svg">
    <path d="M48 104c0-22.094 17.906-40 40-40s40 17.906 40 40-17.906 40-40 40-40-17.906-40-40zm64 248H32V192c0-8.844-7.156-16-16-16s-16 7.156-16 16v176c0 8.844 7.156 16 16 16h32v32H32c-8.844 0-16 7.156-16 16s7.156 16 16 16 16-7.156 16-16h32c0 8.844 7.156 16 16 16s16-7.156 16-16-7.156-16-16-16H80v-32h32c8.844 0 16-7.156 16-16s-7.156-16-16-16zm96 64h-16v-96c0-17.672-14.328-32-32-32h-48v-96c0-17.672-14.328-32-32-32s-32 14.328-32 32v112c0 17.672 14.328 32 32 32h64v96c0 8.844 7.156 16 16 16h48c8.844 0 16-7.156 16-16s-7.156-16-16-16zm293-160H235c-6.063 0-11 4.922-11 11v10c0 6.078 4.938 11 11 11h5v136c0 13.25 10.75 24 24 24h208c13.25 0 24-10.75 24-24V288h5c6.063 0 11-4.922 11-11v-10c0-6.078-4.937-11-11-11zm-53-57.078c0-12.969-2.344-19.359-8.75-26.969-6.406-7.594-15.594-11.953-25.219-11.953h-5.75L384 206.766l-8.938-19.891c2.438-1.766 8.938-6.625 8.938-16.781 0-7.266-8.281-10.094-15.734-10.094S352 162.828 352 170.094c0 10.156 6.344 15.016 8.766 16.781L352 206.766 327.719 160h-5.969c-9.625 0-18.797 4.359-25.203 11.953-6.406 7.609-8.547 14-8.547 27.859V240h160v-41.078zM368 144c22.094 0 40-17.891 40-39.984C408 81.938 390.094 64 368 64s-40 17.938-40 40.016C328 126.109 345.906 144 368 144z" class="placements-svg" fill="#00bcd4"/>
</svg>
