<?xml version="1.0" encoding="UTF-8" standalone="no"?>
<!DOCTYPE svg PUBLIC "-//W3C//DTD SVG 1.1//EN" "http://www.w3.org/Graphics/SVG/1.1/DTD/svg11.dtd">
<svg version="1.1" xmlns="http://www.w3.org/2000/svg" xmlns:xlink="http://www.w3.org/1999/xlink" preserveAspectRatio="xMidYMid meet" viewBox="0 0 640 640" width="640" height="640"><defs><path d="M621.71 87.72L622.54 87.84L623.36 87.99L624.16 88.17L624.96 88.39L625.74 88.63L626.51 88.9L627.27 89.21L628.01 89.54L628.73 89.89L629.44 90.28L630.14 90.69L630.81 91.13L631.47 91.59L632.1 92.08L632.72 92.59L633.32 93.12L633.89 93.67L634.45 94.25L634.98 94.85L635.49 95.46L635.98 96.1L636.44 96.76L636.88 97.43L637.29 98.12L637.67 98.83L638.03 99.56L638.36 100.3L638.66 101.05L638.94 101.82L639.18 102.61L639.39 103.4L639.58 104.21L639.73 105.03L639.85 105.86L639.93 106.7L639.98 107.55L640 108.41L640 546.72L639.98 547.58L639.93 548.43L639.85 549.27L639.73 550.1L639.58 550.92L639.39 551.73L639.18 552.53L638.94 553.31L638.66 554.08L638.36 554.84L638.03 555.58L637.67 556.3L637.29 557.01L636.88 557.7L636.44 558.38L635.98 559.03L635.49 559.67L634.98 560.29L634.45 560.89L633.89 561.46L633.32 562.02L632.72 562.55L632.1 563.06L631.47 563.55L630.81 564.01L630.14 564.44L629.44 564.86L628.73 565.24L628.01 565.6L627.27 565.93L626.51 566.23L625.74 566.5L624.96 566.75L624.16 566.96L623.36 567.14L622.54 567.29L621.71 567.41L620.86 567.5L620.01 567.55L619.15 567.57L20.85 567.57L19.99 567.55L19.14 567.5L18.29 567.41L17.46 567.29L16.64 567.14L15.84 566.96L15.04 566.75L14.26 566.5L13.49 566.23L12.73 565.93L11.99 565.6L11.27 565.24L10.56 564.86L9.86 564.44L9.19 564.01L8.53 563.55L7.9 563.06L7.28 562.55L6.68 562.02L6.11 561.46L5.55 560.89L5.02 560.29L4.51 559.67L4.02 559.03L3.56 558.38L3.12 557.7L2.71 557.01L2.33 556.3L1.97 555.58L1.64 554.84L1.34 554.08L1.06 553.31L0.82 552.53L0.61 551.73L0.42 550.92L0.27 550.1L0.15 549.27L0.07 548.43L0.02 547.58L0 546.72L0 108.41L0.02 107.55L0.07 106.7L0.15 105.86L0.27 105.03L0.42 104.21L0.61 103.4L0.82 102.61L1.06 101.82L1.34 101.05L1.64 100.3L1.97 99.56L2.33 98.83L2.71 98.12L3.12 97.43L3.56 96.76L4.02 96.1L4.51 95.46L5.02 94.85L5.55 94.25L6.11 93.67L6.68 93.12L7.28 92.59L7.9 92.08L8.53 91.59L9.19 91.13L9.86 90.69L10.56 90.28L11.27 89.89L11.99 89.54L12.73 89.21L13.49 88.9L14.26 88.63L15.04 88.39L15.84 88.17L16.64 87.99L17.46 87.84L18.29 87.72L19.14 87.64L19.99 87.58L20.85 87.57L619.15 87.57L620.01 87.58L620.86 87.64L620.86 87.64L621.71 87.72ZM76.89 146.43L76.14 146.51L75.41 146.61L74.69 146.74L73.97 146.9L73.27 147.09L72.58 147.31L71.9 147.55L71.23 147.81L70.58 148.11L69.94 148.42L69.32 148.76L68.7 149.13L68.11 149.51L67.53 149.92L66.97 150.35L66.42 150.8L65.9 151.27L65.39 151.76L64.9 152.27L64.43 152.79L63.98 153.34L63.55 153.9L63.14 154.48L62.76 155.07L62.39 155.68L62.05 156.31L61.74 156.95L61.45 157.6L61.18 158.27L60.94 158.95L60.72 159.64L60.53 160.34L60.37 161.06L60.24 161.78L60.14 162.51L60.06 163.25L60.02 164.01L60 164.76L60 497.98L60.02 498.73L60.06 499.48L60.14 500.23L60.24 500.96L60.37 501.68L60.53 502.4L60.72 503.1L60.94 503.79L61.18 504.47L61.45 505.14L61.74 505.79L62.05 506.43L62.39 507.05L62.76 507.66L63.14 508.26L63.55 508.84L63.98 509.4L64.43 509.95L64.9 510.47L65.39 510.98L65.9 511.47L66.42 511.94L66.97 512.39L67.53 512.82L68.11 513.23L68.7 513.61L69.32 513.98L69.94 514.32L70.58 514.63L71.23 514.92L71.9 515.19L72.58 515.43L73.27 515.65L73.97 515.83L74.69 516L75.41 516.13L76.14 516.23L76.89 516.31L77.64 516.35L78.39 516.37L561.61 516.37L562.36 516.35L563.11 516.31L563.86 516.23L564.59 516.13L565.31 516L566.03 515.83L566.73 515.65L567.42 515.43L568.1 515.19L568.77 514.92L569.42 514.63L570.06 514.32L570.68 513.98L571.3 513.61L571.89 513.23L572.47 512.82L573.03 512.39L573.58 511.94L574.1 511.47L574.61 510.98L575.1 510.47L575.57 509.95L576.02 509.4L576.45 508.84L576.86 508.26L577.24 507.66L577.61 507.05L577.95 506.43L578.26 505.79L578.55 505.14L578.82 504.47L579.06 503.79L579.28 503.1L579.47 502.4L579.63 501.68L579.76 500.96L579.86 500.23L579.94 499.48L579.98 498.73L580 497.98L580 164.76L579.98 164.01L579.94 163.25L579.86 162.51L579.76 161.78L579.63 161.06L579.47 160.34L579.28 159.64L579.06 158.95L578.82 158.27L578.55 157.6L578.26 156.95L577.95 156.31L577.61 155.68L577.24 155.07L576.86 154.48L576.45 153.9L576.02 153.34L575.57 152.79L575.1 152.27L574.61 151.76L574.1 151.27L573.58 150.8L573.03 150.35L572.47 149.92L571.89 149.51L571.3 149.13L570.68 148.76L570.06 148.42L569.42 148.11L568.77 147.81L568.1 147.55L567.42 147.31L566.73 147.09L566.03 146.9L565.31 146.74L564.59 146.61L563.86 146.51L563.11 146.43L562.36 146.38L561.61 146.37L78.39 146.37L77.64 146.38L77.64 146.38L76.89 146.43Z" id="b6u78hCiy"></path><path d="M102.97 180.58L176.89 180.58L176.89 483.58L102.97 483.58L102.97 180.58Z" id="c2W5NoJojL"></path><path d="M229.18 301.27L303.09 301.27L303.09 483.58L229.18 483.58L229.18 301.27Z" id="b2RxFYnudE"></path><path d="M467.96 373.4L541.87 373.4L541.87 483.58L467.96 483.58L467.96 373.4Z" id="dVdyFaQQO"></path><path d="M351.99 236.22L425.9 236.22L425.9 483.58L351.99 483.58L351.99 236.22Z" id="b1IvvSzfN1"></path></defs><g><g><g><use xlink:href="#b6u78hCiy" opacity="1" fill="#00bcd4" fill-opacity="1"></use></g><g><use xlink:href="#c2W5NoJojL" opacity="1" fill="#00bcd4" fill-opacity="1"></use><g><use xlink:href="#c2W5NoJojL" opacity="1" fill-opacity="0" stroke="#4bc78e" stroke-width="0" stroke-opacity="1"></use></g></g><g><use xlink:href="#b2RxFYnudE" opacity="1" fill="#00bcd4" fill-opacity="1"></use><g><use xlink:href="#b2RxFYnudE" opacity="1" fill-opacity="0" stroke="#4bc78e" stroke-width="0" stroke-opacity="1"></use></g></g><g><use xlink:href="#dVdyFaQQO" opacity="1" fill="#00bcd4" fill-opacity="1"></use><g><use xlink:href="#dVdyFaQQO" opacity="1" fill-opacity="0" stroke="#4bc78e" stroke-width="0" stroke-opacity="1"></use></g></g><g><use xlink:href="#b1IvvSzfN1" opacity="1" fill="#00bcd4" fill-opacity="1"></use><g><use xlink:href="#b1IvvSzfN1" opacity="1" fill-opacity="0" stroke="#4bc78e" stroke-width="0" stroke-opacity="1"></use></g></g></g></g></svg>