<svg viewBox="0 0 400 400" xmlns="http://www.w3.org/2000/svg">
    <g class="students-svg">
        <path d="M199.877 198.06l.019-.002.022.002c25.398-.139 40.571-20.708 40.338-40.773-.245-20.679-16.077-39.925-40.156-39.987-24.079.062-40.112 19.308-40.356 39.987-.234 20.065 14.74 40.632 40.133 40.773zM200.099 117.295s-.022.003-.004.003c.023 0 .004-.003.004-.003zM257.857 225.022c-2.189-7.26-7.69-12.509-14.588-15.4-1.918-.804-3.014-1.284-6.06-2.198a50.242 50.242 0 0 0-7.471-1.599c-1.026 3.001-2.594 5.867-4.527 8.18-9.293 11.128-13.201 16.697-19.515 27.826-.015.032-.035.058-.051.088l-2.844-15.935c-.495-2.781.502-6.897 2.214-9.14l4.659-6.116c1.714-2.246.8-4.084-2.026-4.084h-15.299c-2.824 0-3.736 1.838-2.022 4.084l4.66 6.118c1.712 2.243 2.702 6.359 2.209 9.139l-2.844 15.934c-.018-.029-.035-.055-.052-.088-6.317-11.128-10.215-16.697-19.513-27.826-1.933-2.313-3.504-5.178-4.523-8.18a49.719 49.719 0 0 0-7.474 1.599c-3.046.915-4.143 1.395-6.062 2.198-6.891 2.889-12.395 8.14-14.583 15.4-.753 2.484-1.314 5.197-1.494 7.793-.371 5.387-.365 10.788-.225 16.182.268 10.157.957 18.992 6.742 27.699 5.323 8.012 100.345 8.012 105.669 0 5.78-8.707 6.468-17.542 6.735-27.699.144-5.391.148-10.793-.226-16.182-.176-2.597-.739-5.309-1.489-7.793zM283.026 204.01h.032c18.496 0 29.51-15.113 29.335-29.733-.175-15.063-11.769-29.159-29.301-29.159h-.045-.046c-17.534 0-29.134 14.096-29.306 29.159-.175 14.619 10.838 29.733 29.331 29.733zM325.191 219.635c-1.591-5.298-5.611-9.123-10.629-11.221-1.396-.592-2.2-.939-4.417-1.616a38.318 38.318 0 0 0-5.441-1.151c-.025-.008-1.185-.237-2.945-.33-5.171 4.164-11.695 6.44-18.432 6.44h-.567c-6.745 0-13.269-2.276-18.432-6.44-1.769.093-2.928.237-2.945.245-1.87.245-3.681.685-5.45 1.193-.635.195-1.151.364-1.608.516 5.213 4.02 8.954 9.343 10.824 15.554.973 3.224 1.599 6.499 1.794 9.478.338 4.891.423 10.265.245 16.9-.11 4.037-.288 8.04-.838 12.017 21.901 1.21 52.638-.11 55.185-3.952 4.206-6.339 4.705-12.779 4.908-20.167.102-3.944.11-7.862-.169-11.805-.118-1.887-.541-3.867-1.083-5.661zM346.601 201.655H346.627c15.483 0 24.703-12.651 24.556-24.889-.146-12.609-9.851-24.409-24.527-24.409h-.038-.038c-14.678 0-24.388 11.8-24.532 24.409-.146 12.238 9.073 24.889 24.553 24.889zM382.804 219.474c-.099-1.58-.453-3.237-.907-4.739-1.332-4.435-4.697-7.637-8.898-9.393-1.169-.496-1.842-.786-3.698-1.353a32.014 32.014 0 0 0-4.555-.963c-.021-.007-.992-.198-2.465-.276-4.328 3.485-9.79 5.391-15.429 5.391h-.475c-5.646 0-11.108-1.906-15.429-5.391-1.481.078-2.451.198-2.465.205-1.566.205-3.082.574-4.562.999-.531.163-.963.305-1.346.432 4.364 3.365 7.495 7.821 9.061 13.02.815 2.699 1.339 5.441 1.502 7.934.283 4.095.354 8.593.205 14.147-.092 3.379-.241 6.73-.701 10.059 18.333 1.013 44.063-.092 46.195-3.308 3.521-5.306 3.939-10.697 4.109-16.881.085-3.302.092-6.582-.142-9.883zM116.943 204.01h.032c18.493 0 29.506-15.113 29.332-29.733-.172-15.063-11.772-29.159-29.306-29.159h-.037-.054c-17.532 0-29.126 14.096-29.301 29.159-.176 14.619 10.838 29.733 29.334 29.733zM134.851 222.825c1.87-6.212 5.611-11.535 10.824-15.554a65.603 65.603 0 0 0-1.608-.516c-1.769-.508-3.58-.948-5.45-1.193-.017-.008-1.176-.152-2.945-.245-5.162 4.164-11.687 6.44-18.432 6.44h-.567c-6.736 0-13.261-2.276-18.432-6.44-1.76.093-2.92.322-2.945.33a38.288 38.288 0 0 0-5.441 1.151c-2.217.677-3.021 1.024-4.417 1.616-5.018 2.099-9.038 5.924-10.629 11.221-.542 1.794-.965 3.774-1.083 5.662-.279 3.944-.271 7.862-.169 11.805.203 7.388.702 13.828 4.908 20.167 2.547 3.842 33.284 5.162 55.185 3.952-.55-3.977-.728-7.98-.838-12.017-.178-6.635-.093-12.009.245-16.9.195-2.979.821-6.254 1.794-9.479zM53.373 201.655h.026c15.48 0 24.699-12.651 24.553-24.889-.144-12.609-9.854-24.409-24.532-24.409h-.031-.045c-14.676 0-24.381 11.8-24.527 24.409-.147 12.238 9.073 24.889 24.556 24.889zM68.364 217.406c1.566-5.2 4.697-9.656 9.06-13.02a55.603 55.603 0 0 0-1.346-.432c-1.481-.425-2.997-.793-4.562-.999-.014-.007-.985-.128-2.465-.205-4.321 3.485-9.783 5.391-15.429 5.391h-.475c-5.639 0-11.101-1.906-15.429-5.391-1.473.078-2.444.269-2.465.276a32.153 32.153 0 0 0-4.555.963c-1.856.567-2.529.857-3.698 1.353-4.201 1.757-7.566 4.959-8.898 9.393-.453 1.502-.808 3.159-.907 4.739-.234 3.301-.227 6.581-.142 9.882.17 6.184.588 11.575 4.109 16.881 2.132 3.216 27.862 4.321 46.195 3.308-.461-3.33-.609-6.68-.701-10.059-.149-5.554-.078-10.052.205-14.147.164-2.493.688-5.234 1.503-7.933z" fill="#00bcd4"/>
    </g>
</svg>
